<svg width="42" height="36" fill="black" xmlns="http://www.w3.org/2000/svg"><path d="M0 0h42v36H0z"/><path fill="white" d="M-1573-58H347v1715h-1920z"/><path fill-rule="evenodd" clip-rule="evenodd" d="M11.041 4.49999c-1.79996 0-3.48746.69584-4.74996 1.96042-2.62083 2.625-2.62083 6.89789.00208 9.52709L20.9994 30.7187l14.7083-14.7312c2.6229-2.6292 2.6229-6.90209 0-9.52709-2.525-2.53125-6.975-2.52708-9.5 0L22.4744 10.2c-.7834.7854-2.1667.7854-2.95 0L15.791 6.45833c-1.2625-1.2625-2.9479-1.95834-4.75-1.95834zM20.9994 35.75c-.5521 0-1.0834-.2188-1.473-.6125L3.34311 18.9292c-4.241661-4.25-4.241661-11.16462 0-15.41462 2.05-2.05 4.78334-3.181252 7.69789-3.181252 2.9146 0 5.65 1.131252 7.6979 3.181252l2.2605 2.26458 2.2604-2.2625c2.05-2.05208 4.7833-3.183332 7.7-3.183332 2.9125 0 5.6479 1.131252 7.6958 3.181252 4.2438 4.25 4.2438 11.16462.0021 15.41462L22.4744 35.1396c-.3917.3916-.9209.6104-1.475.6104z"/><mask id="a" maskUnits="userSpaceOnUse" x="0" y="0" width="42" height="36"><path fill-rule="evenodd" clip-rule="evenodd" d="M11.041 4.49999c-1.79996 0-3.48746.69584-4.74996 1.96042-2.62083 2.625-2.62083 6.89789.00208 9.52709L20.9994 30.7187l14.7083-14.7312c2.6229-2.6292 2.6229-6.90209 0-9.52709-2.525-2.53125-6.975-2.52708-9.5 0L22.4744 10.2c-.7834.7854-2.1667.7854-2.95 0L15.791 6.45833c-1.2625-1.2625-2.9479-1.95834-4.75-1.95834zM20.9994 35.75c-.5521 0-1.0834-.2188-1.473-.6125L3.34311 18.9292c-4.241661-4.25-4.241661-11.16462 0-15.41462 2.05-2.05 4.78334-3.181252 7.69789-3.181252 2.9146 0 5.65 1.131252 7.6979 3.181252l2.2605 2.26458 2.2604-2.2625c2.05-2.05208 4.7833-3.183332 7.7-3.183332 2.9125 0 5.6479 1.131252 7.6958 3.181252 4.2438 4.25 4.2438 11.16462.0021 15.41462L22.4744 35.1396c-.3917.3916-.9209.6104-1.475.6104z" fill="black"/></mask><g mask="url(#a)"><path fill="#000" d="M-4-8h50v50H-4z"/></g></svg>